<svg width="11" height="6" viewBox="0 0 11 6" fill="none" xmlns="http://www.w3.org/2000/svg">
<path d="M5.78548 4.72874L1.42198 0.482745C1.38681 0.447787 1.34506 0.42015 1.29915 0.401433C1.25323 0.382716 1.20406 0.37329 1.15448 0.373702C1.10489 0.374114 1.05589 0.384355 1.01029 0.403832C0.964689 0.42331 0.923406 0.451637 0.888827 0.487174C0.854249 0.522711 0.827061 0.564754 0.808837 0.610868C0.790614 0.656981 0.781717 0.706253 0.782661 0.755828C0.783605 0.805403 0.794371 0.854299 0.814336 0.899686C0.834302 0.945073 0.86307 0.986049 0.898976 1.02024L5.52398 5.52024C5.59398 5.58836 5.6878 5.62646 5.78548 5.62646C5.88315 5.62646 5.97697 5.58836 6.04698 5.52024L10.672 1.02024C10.7079 0.986049 10.7367 0.945073 10.7566 0.899686C10.7766 0.854299 10.7873 0.805403 10.7883 0.755828C10.7892 0.706253 10.7803 0.656981 10.7621 0.610868C10.7439 0.564754 10.7167 0.522711 10.6821 0.487174C10.6475 0.451637 10.6063 0.42331 10.5607 0.403832C10.5151 0.384355 10.4661 0.374114 10.4165 0.373702C10.3669 0.37329 10.3177 0.382716 10.2718 0.401433C10.2259 0.42015 10.1841 0.447787 10.149 0.482745L5.78548 4.72874Z" style="fill: inherit"/>
</svg>
