<svg width="22" height="15" viewBox="0 0 22 15" fill="none" xmlns="http://www.w3.org/2000/svg">
<path d="M21.725 9.53415C21.6594 9.37531 21.5823 9.22023 21.4942 9.06982L17.4095 1.00834C17.3709 0.930676 17.3155 0.860118 17.2464 0.800454C16.9546 0.547223 16.6081 0.346346 16.2267 0.209295C15.8454 0.0722438 15.4366 0.00170401 15.0238 0.00170401C14.6111 0.00170401 14.2023 0.0722438 13.821 0.209295C13.4396 0.346346 13.0931 0.547223 12.8012 0.800454C12.6544 0.927969 12.5718 1.10074 12.5714 1.28097V3.41094H9.42857V1.28097C9.42865 1.19144 9.4084 1.10277 9.36897 1.02003C9.32953 0.937287 9.27169 0.862095 9.19875 0.79875C8.9069 0.545519 8.5604 0.344642 8.17905 0.207591C7.79769 0.0705398 7.38895 0 6.97616 0C6.56337 0 6.15463 0.0705398 5.77328 0.207591C5.39192 0.344642 5.04542 0.545519 4.75357 0.79875C4.68447 0.858414 4.62914 0.928971 4.59054 1.00663L0.505804 9.06812C0.41767 9.21852 0.340581 9.37361 0.275 9.53245C0.0437056 10.0939 -0.0432935 10.6923 0.0200973 11.286C0.0834882 11.8796 0.295736 12.4541 0.641972 12.969C0.988209 13.484 1.46006 13.9271 2.02447 14.2673C2.58888 14.6075 3.23221 14.8365 3.90937 14.9382C4.58654 15.04 5.28118 15.0122 5.94462 14.8566C6.60806 14.701 7.22426 14.4214 7.75006 14.0375C8.27586 13.6536 8.69854 13.1746 8.98848 12.6341C9.27843 12.0936 9.42863 11.5046 9.42857 10.9084V4.77411H12.5714V10.9084C12.5711 11.5047 12.721 12.0938 13.0108 12.6344C13.3005 13.1751 13.7231 13.6543 14.2488 14.0384C14.7745 14.4225 15.3907 14.7022 16.0542 14.858C16.7177 15.0138 17.4124 15.0418 18.0897 14.9401C18.7669 14.8384 19.4104 14.6095 19.9749 14.2694C20.5395 13.9292 21.0114 13.4861 21.3578 12.9711C21.7041 12.4561 21.9164 11.8816 21.9799 11.2879C22.0433 10.6942 21.9563 10.0956 21.725 9.53415ZM5.96259 1.68567C6.22455 1.49433 6.55138 1.38246 6.89337 1.36708C7.23536 1.3517 7.57378 1.43365 7.85714 1.60047V7.86341C7.2437 7.38557 6.49626 7.05598 5.68973 6.90765C4.8832 6.75931 4.04589 6.79745 3.2617 7.01824L5.96259 1.68567ZM4.71429 13.6348C4.09269 13.6348 3.48505 13.4749 2.96821 13.1753C2.45137 12.8757 2.04854 12.4499 1.81066 11.9517C1.57279 11.4536 1.51055 10.9054 1.63182 10.3765C1.75309 9.84766 2.05241 9.36187 2.49195 8.98058C2.93149 8.5993 3.49149 8.33964 4.10115 8.23444C4.7108 8.12924 5.34272 8.18323 5.91701 8.38958C6.49129 8.59593 6.98213 8.94538 7.32748 9.39373C7.67282 9.84207 7.85714 10.3692 7.85714 10.9084C7.85714 11.6315 7.52602 12.3249 6.93662 12.8362C6.34722 13.3475 5.54782 13.6348 4.71429 13.6348ZM14.1429 1.59962C14.4262 1.4328 14.7646 1.35085 15.1066 1.36623C15.4486 1.38161 15.7755 1.49348 16.0374 1.68481L18.7383 7.01654C17.954 6.79586 17.1167 6.75786 16.3101 6.90634C15.5036 7.05482 14.7562 7.38458 14.1429 7.86256V1.59962ZM17.2857 13.6348C16.6641 13.6348 16.0565 13.4749 15.5396 13.1753C15.0228 12.8757 14.62 12.4499 14.3821 11.9517C14.1442 11.4536 14.082 10.9054 14.2032 10.3765C14.3245 9.84766 14.6238 9.36187 15.0634 8.98058C15.5029 8.5993 16.0629 8.33964 16.6726 8.23444C17.2822 8.12924 17.9142 8.18323 18.4884 8.38958C19.0627 8.59593 19.5536 8.94538 19.8989 9.39373C20.2442 9.84207 20.4286 10.3692 20.4286 10.9084C20.4286 11.6315 20.0974 12.3249 19.508 12.8362C18.9186 13.3475 18.1193 13.6348 17.2857 13.6348Z" fill="#A22929"/>
</svg>
