<svg width="48" height="24" viewBox="0 0 48 24" fill="none" xmlns="http://www.w3.org/2000/svg">
<path d="M13.0909 15.2727V8.53091C11.52 7.81091 10.0582 6.93818 8.72727 5.91273V15.2727H13.0909ZM8.72727 24H4.36364V19.6364H0V15.2727H4.36364V0H8.72727V3.12C12.6545 6.54546 18.0436 8.72727 24 8.72727C29.9564 8.72727 35.3455 6.54546 39.2727 3.12V0H43.6364V15.2727H48V19.6364H43.6364V24H39.2727V19.6364H8.72727V24ZM34.9091 8.53091V15.2727H39.2727V5.91273C37.9418 6.93818 36.48 7.81091 34.9091 8.53091ZM32.7273 15.2727V9.42545C31.3309 9.92727 29.8691 10.2982 28.3636 10.56V15.2727H32.7273ZM26.1818 15.2727V10.8218L24 10.9091L21.8182 10.8218V15.2727H26.1818ZM19.6364 15.2727V10.56C18.1309 10.2982 16.6691 9.92727 15.2727 9.42545V15.2727H19.6364Z" fill="#A22929"/>
</svg>
