<svg width="45" height="45" viewBox="0 0 45 45" fill="none" xmlns="http://www.w3.org/2000/svg">
<path d="M22.5 0C11.5916 0 0 3.58364 0 10.2273C0 11.745 4.05818 34.7523 4.09091 34.965C4.26273 39.2748 10.2273 41.6332 16.3636 42.5168V42.9545C16.3636 43.497 16.5791 44.0173 16.9627 44.4009C17.3463 44.7845 17.8666 45 18.4091 45H26.5909C27.1334 45 27.6537 44.7845 28.0373 44.4009C28.4209 44.0173 28.6364 43.497 28.6364 42.9545V42.5168C34.7727 41.6332 40.7352 39.2748 40.9091 34.965C40.9398 34.7584 45 10.4318 45 10.2273C45 3.58364 33.4084 0 22.5 0ZM24.5455 40.9091H20.4545V36.8182C20.4545 36.2757 20.67 35.7554 21.0536 35.3718C21.4372 34.9882 21.9575 34.7727 22.5 34.7727C23.0425 34.7727 23.5628 34.9882 23.9464 35.3718C24.33 35.7554 24.5455 36.2757 24.5455 36.8182V40.9091ZM36.8468 34.4373C36.8281 34.5481 36.8185 34.6603 36.8182 34.7727C36.8182 35.505 34.3411 37.4543 28.6364 38.3768V36.8182C28.6364 35.1907 27.9899 33.6299 26.8391 32.4791C25.6883 31.3283 24.1275 30.6818 22.5 30.6818C20.8725 30.6818 19.3117 31.3283 18.1609 32.4791C17.0101 33.6299 16.3636 35.1907 16.3636 36.8182V38.3768C10.6589 37.4543 8.18182 35.5132 8.18182 34.7727C8.18245 34.6603 8.17286 34.548 8.15318 34.4373L6.72136 25.8464C11.7476 27.8002 17.1085 28.7482 22.5 28.6364C27.8894 28.742 33.2474 27.7928 38.2725 25.8423L36.8468 34.4373ZM39.1214 20.7327C35.8875 23.0564 29.4955 24.5455 22.5 24.5455C15.615 24.5455 9.27205 23.1136 5.94614 20.8166C5.92773 20.8043 5.90727 20.8043 5.88886 20.7941L5.25682 16.9773C10.6813 19.3827 16.5672 20.5697 22.5 20.4545C28.4334 20.5692 34.3199 19.3823 39.7452 16.9773L39.1214 20.7327ZM10.1925 14.5964C14.0717 12.9179 18.2759 12.1242 22.5 12.2727C26.7244 12.1254 30.9286 12.9206 34.8075 14.6005C30.8225 15.8286 26.6695 16.4235 22.5 16.3636C18.3307 16.4212 14.178 15.8263 10.1925 14.6005V14.5964ZM39.0539 12.6082C36.1718 9.91636 29.7839 8.18182 22.5 8.18182C15.2161 8.18182 8.83227 9.91432 5.94614 12.6123C5.20568 12.0989 4.09091 11.1273 4.09091 10.2273C4.09091 7.72568 11.2623 4.09091 22.5 4.09091C33.7377 4.09091 40.9091 7.72568 40.9091 10.2273C40.9091 11.1314 39.7964 12.0989 39.0539 12.6123V12.6082Z" fill="#A22929"/>
</svg>
