<svg width="42" height="45" viewBox="0 0 42 45" fill="none" xmlns="http://www.w3.org/2000/svg">
<path d="M0 45V27.8571L8.4 24.0536V17.1429L18.9 11.7857V8.57143H14.7V4.28571H18.9V0H23.1V4.28571H27.3V8.57143H23.1V11.7857L33.6 17.1429V24.0536L42 27.8571V45H23.1V36.4286C23.1 35.8214 22.8984 35.3129 22.4952 34.9029C22.092 34.4929 21.5936 34.2871 21 34.2857C20.4064 34.2843 19.908 34.49 19.5048 34.9029C19.1016 35.3157 18.9 35.8243 18.9 36.4286V45H0ZM4.2 40.7143H14.7V36.3214C14.7 34.5 15.3125 32.9557 16.5375 31.6886C17.7625 30.4214 19.25 29.7871 21 29.7857C22.75 29.7843 24.2375 30.4186 25.4625 31.6886C26.6875 32.9586 27.3 34.5029 27.3 36.3214V40.7143H37.8V30.4286L29.4 26.5714V19.3929L21 15L12.6 19.3929V26.5714L4.2 30.4286V40.7143ZM21 26.7857C21.875 26.7857 22.6191 26.4736 23.2323 25.8493C23.8455 25.225 24.1514 24.4657 24.15 23.5714C24.1486 22.6771 23.8427 21.9186 23.2323 21.2957C22.6219 20.6729 21.8778 20.36 21 20.3571C20.1222 20.3543 19.3788 20.6671 18.7698 21.2957C18.1608 21.9243 17.8542 22.6829 17.85 23.5714C17.8458 24.46 18.1524 25.2193 18.7698 25.8493C19.3872 26.4793 20.1306 26.7914 21 26.7857Z" fill="#A22929"/>
</svg>
