<svg width="56" height="45" viewBox="0 0 56 45" fill="none" xmlns="http://www.w3.org/2000/svg">
<path d="M54.1333 41.25H52.2667V13.125C52.2667 12.6277 52.07 12.1508 51.7199 11.7992C51.3699 11.4475 50.8951 11.25 50.4 11.25H35.4667C34.9716 11.25 34.4968 11.4475 34.1467 11.7992C33.7967 12.1508 33.6 12.6277 33.6 13.125V22.5H22.4V1.875C22.4 1.37772 22.2033 0.900806 21.8533 0.549175C21.5032 0.197544 21.0284 0 20.5333 0H5.6C5.10493 0 4.63014 0.197544 4.28007 0.549175C3.93 0.900806 3.73333 1.37772 3.73333 1.875V41.25H1.86667C1.3716 41.25 0.896802 41.4475 0.546734 41.7992C0.196666 42.1508 0 42.6277 0 43.125C0 43.6223 0.196666 44.0992 0.546734 44.4508C0.896802 44.8025 1.3716 45 1.86667 45H54.1333C54.6284 45 55.1032 44.8025 55.4533 44.4508C55.8033 44.0992 56 43.6223 56 43.125C56 42.6277 55.8033 42.1508 55.4533 41.7992C55.1032 41.4475 54.6284 41.25 54.1333 41.25ZM37.3333 15H48.5333V41.25H37.3333V15ZM33.6 26.25V41.25H22.4V26.25H33.6ZM7.46667 3.75H18.6667V41.25H7.46667V3.75ZM14.9333 9.375V13.125C14.9333 13.6223 14.7367 14.0992 14.3866 14.4508C14.0365 14.8025 13.5617 15 13.0667 15C12.5716 15 12.0968 14.8025 11.7467 14.4508C11.3967 14.0992 11.2 13.6223 11.2 13.125V9.375C11.2 8.87772 11.3967 8.40081 11.7467 8.04918C12.0968 7.69754 12.5716 7.5 13.0667 7.5C13.5617 7.5 14.0365 7.69754 14.3866 8.04918C14.7367 8.40081 14.9333 8.87772 14.9333 9.375ZM14.9333 20.625V24.375C14.9333 24.8723 14.7367 25.3492 14.3866 25.7008C14.0365 26.0525 13.5617 26.25 13.0667 26.25C12.5716 26.25 12.0968 26.0525 11.7467 25.7008C11.3967 25.3492 11.2 24.8723 11.2 24.375V20.625C11.2 20.1277 11.3967 19.6508 11.7467 19.2992C12.0968 18.9475 12.5716 18.75 13.0667 18.75C13.5617 18.75 14.0365 18.9475 14.3866 19.2992C14.7367 19.6508 14.9333 20.1277 14.9333 20.625ZM14.9333 31.875V35.625C14.9333 36.1223 14.7367 36.5992 14.3866 36.9508C14.0365 37.3025 13.5617 37.5 13.0667 37.5C12.5716 37.5 12.0968 37.3025 11.7467 36.9508C11.3967 36.5992 11.2 36.1223 11.2 35.625V31.875C11.2 31.3777 11.3967 30.9008 11.7467 30.5492C12.0968 30.1975 12.5716 30 13.0667 30C13.5617 30 14.0365 30.1975 14.3866 30.5492C14.7367 30.9008 14.9333 31.3777 14.9333 31.875ZM26.1333 35.625V31.875C26.1333 31.3777 26.33 30.9008 26.6801 30.5492C27.0301 30.1975 27.5049 30 28 30C28.4951 30 28.9699 30.1975 29.3199 30.5492C29.67 30.9008 29.8667 31.3777 29.8667 31.875V35.625C29.8667 36.1223 29.67 36.5992 29.3199 36.9508C28.9699 37.3025 28.4951 37.5 28 37.5C27.5049 37.5 27.0301 37.3025 26.6801 36.9508C26.33 36.5992 26.1333 36.1223 26.1333 35.625ZM41.0667 35.625V31.875C41.0667 31.3777 41.2633 30.9008 41.6134 30.5492C41.9635 30.1975 42.4383 30 42.9333 30C43.4284 30 43.9032 30.1975 44.2533 30.5492C44.6033 30.9008 44.8 31.3777 44.8 31.875V35.625C44.8 36.1223 44.6033 36.5992 44.2533 36.9508C43.9032 37.3025 43.4284 37.5 42.9333 37.5C42.4383 37.5 41.9635 37.3025 41.6134 36.9508C41.2633 36.5992 41.0667 36.1223 41.0667 35.625ZM41.0667 24.375V20.625C41.0667 20.1277 41.2633 19.6508 41.6134 19.2992C41.9635 18.9475 42.4383 18.75 42.9333 18.75C43.4284 18.75 43.9032 18.9475 44.2533 19.2992C44.6033 19.6508 44.8 20.1277 44.8 20.625V24.375C44.8 24.8723 44.6033 25.3492 44.2533 25.7008C43.9032 26.0525 43.4284 26.25 42.9333 26.25C42.4383 26.25 41.9635 26.0525 41.6134 25.7008C41.2633 25.3492 41.0667 24.8723 41.0667 24.375Z" fill="#A22929"/>
</svg>
