<svg width="34" height="33" viewBox="0 0 34 33" fill="none" xmlns="http://www.w3.org/2000/svg">
<path d="M26.1451 28.7884H8.4433C7.53162 28.7884 6.65728 28.4263 6.01262 27.7816C5.36796 27.1369 5.0058 26.2626 5.0058 25.3509V7.64917C5.0058 6.73749 5.36796 5.86315 6.01262 5.21849C6.65728 4.57383 7.53162 4.21167 8.4433 4.21167H26.1451C27.0567 4.21167 27.9311 4.57383 28.5757 5.21849C29.2204 5.86315 29.5826 6.73749 29.5826 7.64917V25.3509C29.5826 26.2626 29.2204 27.1369 28.5757 27.7816C27.9311 28.4263 27.0567 28.7884 26.1451 28.7884ZM8.4433 5.58667C7.89629 5.58667 7.37168 5.80397 6.98489 6.19076C6.5981 6.57756 6.3808 7.10216 6.3808 7.64917V25.3509C6.3808 25.8979 6.5981 26.4225 6.98489 26.8093C7.37168 27.1961 7.89629 27.4134 8.4433 27.4134H26.1451C26.6921 27.4134 27.2167 27.1961 27.6035 26.8093C27.9902 26.4225 28.2076 25.8979 28.2076 25.3509V7.64917C28.2076 7.10216 27.9902 6.57756 27.6035 6.19076C27.2167 5.80397 26.6921 5.58667 26.1451 5.58667H8.4433Z" fill="white"/>
<path d="M17.2942 22.8167C16.0448 22.8153 14.8239 22.4436 13.7857 21.7484C12.7476 21.0533 11.9389 20.066 11.4617 18.9113C10.9846 17.7566 10.8606 16.4864 11.1053 15.2612C11.3499 14.036 11.9523 12.9109 12.8364 12.028C13.7204 11.1452 14.8463 10.5442 16.0718 10.3012C17.2973 10.0581 18.5674 10.1838 19.7214 10.6624C20.8755 11.141 21.8617 11.9511 22.5555 12.9901C23.2493 14.0291 23.6194 15.2505 23.6192 16.4999C23.617 18.176 22.9496 19.7827 21.7637 20.967C20.5778 22.1514 18.9702 22.8167 17.2942 22.8167ZM17.2942 11.5499C16.3171 11.5513 15.3623 11.8422 14.5505 12.3859C13.7387 12.9295 13.1062 13.7016 12.7329 14.6046C12.3596 15.5075 12.2623 16.5009 12.4532 17.4591C12.6442 18.4173 13.1148 19.2975 13.8057 19.9884C14.4966 20.6793 15.3768 21.1499 16.335 21.3408C17.2932 21.5318 18.2866 21.4345 19.1895 21.0612C20.0925 20.6879 20.8646 20.0554 21.4082 19.2436C21.9519 18.4317 22.2428 17.477 22.2442 16.4999C22.2442 15.1871 21.7226 13.928 20.7943 12.9997C19.866 12.0714 18.607 11.5499 17.2942 11.5499Z" fill="white"/>
<path d="M24.4442 10.8693C25.2605 10.8693 25.9223 10.2076 25.9223 9.39121C25.9223 8.57486 25.2605 7.91309 24.4442 7.91309C23.6278 7.91309 22.9661 8.57486 22.9661 9.39121C22.9661 10.2076 23.6278 10.8693 24.4442 10.8693Z" fill="white"/>
</svg>
