<svg width="15" height="11" viewBox="0 0 15 11" fill="none" xmlns="http://www.w3.org/2000/svg">
<path fill-rule="evenodd" clip-rule="evenodd" d="M8.2171 9.6334C7.93585 9.96194 7.5546 10.1465 7.1571 10.1465C6.7596 10.1465 6.37835 9.96194 6.0971 9.6334L0.439102 3.01803C0.299835 2.85507 0.189377 2.66161 0.114031 2.44872C0.0386848 2.23582 -7.15256e-05 2.00766 -2.47955e-05 1.77724C2.19345e-05 1.54683 0.0388708 1.31868 0.114302 1.10582C0.189733 0.89297 0.300269 0.699578 0.439602 0.53669C0.578935 0.3738 0.744334 0.244604 0.926355 0.156479C1.10838 0.0683537 1.30346 0.0230227 1.50046 0.023077C1.69746 0.0231314 1.89252 0.0685701 2.0745 0.156796C2.25649 0.245022 2.42183 0.374309 2.5611 0.537274L7.1571 5.91167L11.7531 0.536104C11.8914 0.368464 12.0569 0.234717 12.2398 0.14267C12.4228 0.0506229 12.6196 0.00211906 12.8188 -1.43051e-05C13.018 -0.00214767 13.2155 0.0421333 13.3999 0.130246C13.5842 0.218359 13.7518 0.348536 13.8927 0.513186C14.0336 0.677835 14.145 0.873659 14.2206 1.08923C14.2961 1.3048 14.3341 1.5358 14.3325 1.76875C14.3308 2.0017 14.2895 2.23194 14.211 2.44603C14.1325 2.66012 14.0183 2.85378 13.8751 3.0157L8.2171 9.6334Z" fill="black"/>
</svg>
