<svg width="61" height="61" viewBox="0 0 61 61" fill="none" xmlns="http://www.w3.org/2000/svg">
<path d="M54.1216 40.7558L54.1089 54.1059H6.85297V40.7304C11.2056 45.083 18.2619 45.083 22.6145 40.7304H22.6177C26.9703 45.083 34.0266 45.083 38.3792 40.7304H38.3823C42.7286 45.0766 49.7658 45.0861 54.1216 40.7558ZM38.3855 28.3715C34.0297 32.7241 26.9734 32.7241 22.6208 28.3715H22.6177C18.265 32.7241 11.2087 32.7241 6.85614 28.3715V40.7335C11.2087 45.0861 18.265 45.0861 22.6177 40.7335H22.6208C26.9734 45.0861 34.0297 45.0861 38.3823 40.7335H38.3855C42.7286 45.0766 49.769 45.0861 54.1216 40.759L54.1343 28.3842C49.7817 32.7241 42.7318 32.7209 38.3855 28.3715ZM38.3855 17.0039C34.0297 21.3565 26.9734 21.3565 22.6208 17.0039H22.6177C18.265 21.3565 11.2087 21.3565 6.85614 17.0039V28.3715C11.2087 32.7241 18.265 32.7241 22.6177 28.3715H22.6208C26.9734 32.7241 34.0297 32.7241 38.3823 28.3715H38.3855C42.7349 32.7209 49.7817 32.7241 54.1375 28.3842L54.1502 17.0039C49.7944 21.3565 42.7381 21.3565 38.3855 17.0039Z" fill="#A22929"/>
<path d="M22.6145 17.0037C18.2619 21.3563 11.2056 21.3563 6.85297 17.0037V54.1088H54.1057L54.1184 40.7587L54.1311 28.384L54.1439 17.0037C49.7912 21.3563 42.7349 21.3563 38.3823 17.0037" stroke="#F6F3E4" stroke-width="1.58854" stroke-miterlimit="10" stroke-linecap="round" stroke-linejoin="round"/>
<path d="M38.3823 17.0034C34.0297 21.356 26.9734 21.356 22.6208 17.0034" stroke="#F6F3E4" stroke-width="1.58854" stroke-miterlimit="10" stroke-linecap="round" stroke-linejoin="round"/>
<path d="M22.6145 28.3711C18.2619 32.7237 11.2056 32.7237 6.85297 28.3711" stroke="#F6F3E4" stroke-width="1.58854" stroke-miterlimit="10" stroke-linecap="round" stroke-linejoin="round"/>
<path d="M38.3823 28.3711C34.0297 32.7237 26.9734 32.7237 22.6208 28.3711" stroke="#F6F3E4" stroke-width="1.58854" stroke-miterlimit="10" stroke-linecap="round" stroke-linejoin="round"/>
<path d="M54.147 28.3711L54.1343 28.3838C49.7817 32.7237 42.7318 32.7205 38.3823 28.3711" stroke="#F6F3E4" stroke-width="1.58854" stroke-miterlimit="10" stroke-linecap="round" stroke-linejoin="round"/>
<path d="M22.6145 40.7329C18.2619 45.0855 11.2056 45.0855 6.85297 40.7329" stroke="#F6F3E4" stroke-width="1.58854" stroke-miterlimit="10" stroke-linecap="round" stroke-linejoin="round"/>
<path d="M38.3823 40.7329C34.0297 45.0855 26.9734 45.0855 22.6208 40.7329" stroke="#F6F3E4" stroke-width="1.58854" stroke-miterlimit="10" stroke-linecap="round" stroke-linejoin="round"/>
<path d="M54.147 40.7329L54.1216 40.7583C49.7658 45.0855 42.7286 45.0792 38.3855 40.7329" stroke="#F6F3E4" stroke-width="1.58854" stroke-miterlimit="10" stroke-linecap="round" stroke-linejoin="round"/>
</svg>
