<svg width="33" height="22" viewBox="0 0 33 22" fill="none" xmlns="http://www.w3.org/2000/svg">
<path d="M0.794189 3.38905C0.794189 2.20858 1.61632 1.7426 2.62818 1.68047L7.33964 1.71154C7.62423 1.71154 7.87719 1.89793 7.97206 2.17751C9.04715 5.59467 10.3752 7.7071 11.9562 10.0991C12.0511 10.2855 12.2092 10.3787 12.3673 10.3787C12.4938 10.3787 12.6203 10.3166 12.7151 10.1612L12.81 9.81953L12.8416 4.44527C12.8416 3.66864 12.4622 3.54438 11.5768 3.42012C11.229 3.35799 11.0076 3.04734 11.0076 2.73669C11.0076 2.67456 11.0076 2.61243 11.0392 2.5503C11.4819 1.2145 12.8732 0.531065 14.8337 0.531065L16.6045 0.5C18.059 0.5 19.3871 1.1213 19.3871 2.95414V10.0059C19.5136 10.0991 19.64 10.1612 19.7981 10.1612C20.0511 10.1612 20.3673 10.0059 20.6203 9.60207C22.2645 7.33432 24.1302 4.63166 24.3831 3.20266C24.3831 3.14053 24.4147 3.10947 24.4464 3.04734C24.7942 2.36391 25.6796 1.89793 26.059 1.77367C26.1223 1.7426 26.2171 1.71154 26.3436 1.71154H31.2448L31.561 1.7426C32.0353 1.7426 32.3831 2.05325 32.5412 2.33284C32.8258 2.76775 32.7626 3.23373 32.7942 3.42012V3.63757C32.3199 6.4645 29.0313 9.63314 27.64 11.6834C27.4503 11.932 27.3555 12.1494 27.3555 12.3669C27.3555 12.5533 27.4503 12.7396 27.6084 12.926L32.225 18.642C32.478 18.9837 32.6045 19.3876 32.6045 19.7293C32.6045 20.7544 31.6242 21.3447 30.6756 21.4379L30.1381 21.4689H25.3317C25.2369 21.4689 25.1736 21.5 25.0788 21.5C24.5412 21.5 24.0985 21.2204 23.7823 20.9098C22.7705 19.6982 21.7902 18.4556 20.81 17.2441C20.6203 16.9956 20.557 16.9645 20.3673 16.8402C20.146 17.7411 19.9562 18.6731 19.7349 19.605L19.64 20.1331C19.4819 20.6923 19.0709 21.2825 18.312 21.4379L17.8693 21.4689H14.7705C9.30012 21.4689 4.39893 13.8269 0.952292 4.28994C0.857431 4.04142 0.794189 3.6997 0.794189 3.38905ZM19.7981 11.4349C18.976 11.4349 18.059 10.9689 18.059 10.0991V2.95414C18.059 2.11538 17.6796 1.80473 16.6361 1.80473L14.8337 1.86686C13.8219 1.86686 13.2527 2.02219 12.7784 2.33284C13.5057 2.67456 14.1697 3.14053 14.1697 4.44527V9.91272C14.0748 11 13.1578 11.7145 12.2725 11.7145C11.6717 11.7145 11.1341 11.3728 10.8179 10.8136C9.39498 8.70118 8.1934 6.71302 7.14992 3.85503L6.86534 3.04734L2.6598 3.01627C2.09063 3.01627 2.15387 3.04734 2.15387 3.32692C2.15387 3.51331 2.18549 3.76183 2.21711 3.91716L2.88115 5.65681C6.32779 14.4172 10.6598 20.1642 14.7705 20.1642H17.9325C18.3752 20.1642 18.3436 19.6361 18.4385 19.3254L19.0392 16.5917C19.1657 16.3121 19.2606 16.0636 19.4819 15.8462C19.7349 15.5976 20.0195 15.5044 20.3041 15.5044C20.9049 15.5044 21.474 15.9704 21.8535 16.4053L24.5412 19.7604C24.7626 20.1021 24.9523 20.1642 25.0788 20.1642H30.2962C30.8021 20.1642 31.2448 20.0089 31.2448 19.6982C31.2448 19.605 31.2132 19.4808 31.1499 19.3876L26.5649 13.7648C26.1855 13.2988 26.0274 12.8328 26.0274 12.3669C26.0274 11.8698 26.2171 11.3728 26.5333 10.9379C27.8614 8.98077 30.7072 6.18491 31.3713 3.88609L31.4661 3.48225C31.4345 3.32692 31.4345 3.20266 31.4029 3.04734H26.4385C26.1223 3.1716 25.8693 3.35799 25.6796 3.60651L25.4898 4.19675C24.7626 6.18491 22.7705 8.91864 21.3475 10.8136C20.8732 11.2485 20.3357 11.4349 19.7981 11.4349Z" fill="white"/>
</svg>
