<svg width="40" height="39" viewBox="0 0 40 39" fill="none" xmlns="http://www.w3.org/2000/svg">
<path d="M25.6765 18.7383L18.364 13.8633C18.2262 13.7714 18.0661 13.7187 17.9007 13.7107C17.7353 13.7027 17.5709 13.7398 17.4249 13.818C17.279 13.8962 17.157 14.0126 17.0721 14.1548C16.9871 14.2969 16.9424 14.4594 16.9426 14.625V24.375C16.9424 24.5406 16.9871 24.7032 17.0721 24.8453C17.157 24.9874 17.279 25.1038 17.4249 25.1821C17.5709 25.2603 17.7353 25.2974 17.9007 25.2894C18.0661 25.2814 18.2262 25.2287 18.364 25.1367L25.6765 20.2617C25.8022 20.1784 25.9053 20.0652 25.9766 19.9323C26.048 19.7994 26.0853 19.6509 26.0853 19.5C26.0853 19.3492 26.048 19.2007 25.9766 19.0678C25.9053 18.9349 25.8022 18.8217 25.6765 18.7383ZM18.7708 22.6673V16.3328L23.5208 19.5L18.7708 22.6673ZM36.1989 10.6641C36.0666 10.1502 35.8142 9.67514 35.4625 9.27786C35.1108 8.88059 34.6698 8.5725 34.1758 8.37894C28.9778 6.36648 20.64 6.39847 20.2942 6.39847C19.9484 6.39847 11.6106 6.36648 6.40653 8.37894C5.91363 8.57329 5.47384 8.88173 5.12322 9.27896C4.7726 9.67618 4.52115 10.1509 4.3895 10.6641C4.00103 12.1708 3.53638 14.9297 3.53638 19.5C3.53638 24.0703 4.00103 26.8293 4.3895 28.336C4.52176 28.8498 4.77414 29.3249 5.12586 29.7222C5.47758 30.1195 5.91859 30.4276 6.41263 30.6211C11.6106 32.6336 19.9468 32.6016 20.2942 32.6016H20.4024C21.455 32.6016 29.2383 32.5346 34.1818 30.6211C34.6759 30.4276 35.1169 30.1195 35.4686 29.7222C35.8203 29.3249 36.0727 28.8498 36.205 28.336C36.5934 26.8323 37.0581 24.081 37.0581 19.5C37.0581 14.9191 36.595 12.1708 36.1989 10.6641ZM34.4286 27.8789C34.37 28.1131 34.2565 28.33 34.0976 28.5117C33.9387 28.6934 33.7388 28.8347 33.5146 28.924C28.6396 30.8024 20.3825 30.7735 20.2942 30.7735C20.2058 30.7735 11.9595 30.8039 7.07837 28.9194C6.85411 28.8301 6.65428 28.6888 6.49536 28.5071C6.33644 28.3254 6.22297 28.1085 6.16431 27.8744C5.79716 26.4743 5.3645 23.8845 5.3645 19.5C5.3645 15.1156 5.79716 12.5257 6.15974 11.1211C6.2184 10.887 6.33187 10.6701 6.49079 10.4884C6.64971 10.3067 6.84954 10.1654 7.0738 10.076C11.7721 8.2662 19.6132 8.22659 20.2576 8.22659H20.2942C20.3765 8.22659 28.6289 8.19612 33.51 10.0806C33.7343 10.1699 33.9341 10.3113 34.093 10.493C34.2519 10.6747 34.3654 10.8915 34.4241 11.1257C34.7866 12.5257 35.2193 15.1156 35.2193 19.5046C35.2193 23.8936 34.7912 26.4743 34.4286 27.8789Z" fill="#F8F8F8"/>
</svg>
